<?xml version="1.0" encoding="utf-8"?>
<!-- Generator: Adobe Illustrator 16.0.0, SVG Export Plug-In . SVG Version: 6.00 Build 0)  -->
<!DOCTYPE svg PUBLIC "-//W3C//DTD SVG 1.1//EN" "http://www.w3.org/Graphics/SVG/1.1/DTD/svg11.dtd">
<svg version="1.1" id="Layer_1" xmlns="http://www.w3.org/2000/svg" xmlns:xlink="http://www.w3.org/1999/xlink" x="0px" y="0px"
	 width="500px" height="200px" viewBox="0 0 500 200" enable-background="new 0 0 500 200" xml:space="preserve">
<g>
	<g>
		<g>
			<g>
				<g>
					<g>
						<g>
							<g>
								<rect x="56.414" y="118.45" fill="#77C8A7" width="14.627" height="0.415"/>
								<g>
									<path fill="#77C8A7" d="M55.511,118.656c0-0.26,0.221-0.47,0.494-0.47c0.271,0,0.495,0.21,0.495,0.47
										c0,0.261-0.224,0.473-0.495,0.473C55.731,119.129,55.511,118.917,55.511,118.656z M55.774,118.656
										c0,0.122,0.105,0.222,0.23,0.222c0.128,0,0.231-0.1,0.231-0.222c0-0.12-0.103-0.22-0.231-0.22
										C55.88,118.437,55.774,118.536,55.774,118.656z"/>
								</g>
							</g>
							<g>
								<rect x="57.752" y="119.722" fill="#77C8A7" width="12.986" height="0.422"/>
								<g>
									<path fill="#77C8A7" d="M56.849,119.937c0-0.262,0.22-0.471,0.494-0.471c0.27,0,0.495,0.209,0.495,0.471
										c0,0.258-0.225,0.471-0.495,0.471C57.069,120.407,56.849,120.194,56.849,119.937z M57.112,119.937
										c0,0.123,0.105,0.218,0.23,0.218s0.231-0.095,0.231-0.218s-0.105-0.222-0.231-0.222S57.112,119.813,57.112,119.937z"/>
								</g>
							</g>
							<g>
								<rect x="44.1" y="129.471" fill="#77C8A7" width="25.673" height="0.42"/>
								<g>
									<path fill="#77C8A7" d="M43.197,129.682c0-0.26,0.218-0.472,0.495-0.472c0.271,0,0.491,0.212,0.491,0.472
										c0,0.258-0.22,0.473-0.491,0.473C43.415,130.154,43.197,129.939,43.197,129.682z M43.46,129.682
										c0,0.118,0.103,0.219,0.231,0.219c0.125,0,0.23-0.101,0.23-0.219c0-0.124-0.105-0.22-0.23-0.22
										C43.563,129.462,43.46,129.558,43.46,129.682z"/>
								</g>
							</g>
							<g>
								<rect x="46.67" y="128.328" fill="#77C8A7" width="22.801" height="0.417"/>
								<g>
									<path fill="#77C8A7" d="M45.768,128.534c0-0.256,0.221-0.469,0.491-0.469c0.274,0,0.495,0.213,0.495,0.469
										c0,0.261-0.221,0.471-0.495,0.471C45.989,129.005,45.768,128.795,45.768,128.534z M46.031,128.534
										c0,0.125,0.099,0.219,0.227,0.219c0.129,0,0.231-0.094,0.231-0.219c0-0.118-0.102-0.217-0.231-0.217
										C46.13,128.317,46.031,128.416,46.031,128.534z"/>
								</g>
							</g>
							<g>
								<rect x="59.094" y="121" fill="#77C8A7" width="10.873" height="0.421"/>
								<g>
									<path fill="#77C8A7" d="M58.189,121.209c0-0.257,0.222-0.469,0.495-0.469c0.271,0,0.492,0.212,0.492,0.469
										c0,0.26-0.221,0.47-0.492,0.47C58.411,121.679,58.189,121.469,58.189,121.209z M58.451,121.209
										c0,0.12,0.105,0.22,0.233,0.22c0.129,0,0.228-0.1,0.228-0.22c0-0.119-0.099-0.218-0.228-0.218
										C58.556,120.991,58.451,121.09,58.451,121.209z"/>
								</g>
							</g>
							<g>
								<rect x="60.428" y="122.278" fill="#77C8A7" width="10.876" height="0.416"/>
								<g>
									<path fill="#77C8A7" d="M59.528,122.491c0-0.264,0.221-0.477,0.494-0.477c0.271,0,0.491,0.213,0.491,0.477
										c0,0.256-0.22,0.467-0.491,0.467C59.749,122.958,59.528,122.747,59.528,122.491z M59.792,122.491
										c0,0.119,0.103,0.217,0.23,0.217c0.126,0,0.227-0.098,0.227-0.217c0-0.127-0.101-0.225-0.227-0.225
										C59.895,122.267,59.792,122.364,59.792,122.491z"/>
								</g>
							</g>
							<g>
								<polygon fill="#77C8A7" points="55.254,124.637 58.371,127.604 58.682,127.312 55.563,124.337 								"/>
								<g>
									<path fill="#77C8A7" d="M54.641,124.225c0-0.262,0.218-0.476,0.491-0.476c0.272,0,0.494,0.214,0.494,0.476
										c0,0.261-0.222,0.467-0.494,0.467C54.858,124.691,54.641,124.485,54.641,124.225z M54.901,124.225
										c0,0.117,0.106,0.216,0.231,0.216c0.128,0,0.23-0.099,0.23-0.216c0-0.122-0.103-0.222-0.23-0.222
										C55.007,124.003,54.901,124.103,54.901,124.225z"/>
								</g>
								<rect x="58.381" y="127.171" fill="#77C8A7" width="11.177" height="0.421"/>
							</g>
							<g>
								<g>
									<rect x="51.667" y="119.891" fill="#77C8A7" width="4.064" height="0.417"/>
									<g>
										<path fill="#77C8A7" d="M50.765,120.103c0-0.264,0.221-0.469,0.494-0.469c0.271,0,0.495,0.205,0.495,0.469
											c0,0.258-0.224,0.469-0.495,0.469C50.985,120.571,50.765,120.36,50.765,120.103z M51.028,120.103
											c0,0.121,0.105,0.221,0.23,0.221c0.128,0,0.231-0.1,0.231-0.221c0-0.124-0.103-0.223-0.231-0.223
											C51.134,119.88,51.028,119.979,51.028,120.103z"/>
									</g>
								</g>
								<polygon fill="#77C8A7" points="55.425,120.19 59.294,123.88 59.604,123.583 55.731,119.891 								"/>
								<rect x="59.288" y="123.46" fill="#77C8A7" width="10.874" height="0.42"/>
							</g>
							<g>
								<rect x="49.505" y="121.18" fill="#77C8A7" width="5.963" height="0.417"/>
								<g>
									<path fill="#77C8A7" d="M48.602,121.388c0-0.264,0.221-0.472,0.495-0.472c0.271,0,0.494,0.208,0.494,0.472
										c0,0.259-0.224,0.469-0.494,0.469C48.823,121.856,48.602,121.646,48.602,121.388z M48.866,121.388
										c0,0.121,0.103,0.221,0.231,0.221c0.125,0,0.23-0.1,0.23-0.221c0-0.12-0.105-0.215-0.23-0.215
										C48.968,121.173,48.866,121.268,48.866,121.388z"/>
								</g>
								<polygon fill="#77C8A7" points="55.161,121.476 59.027,125.165 59.341,124.869 55.471,121.18 								"/>
								<rect x="59.024" y="124.752" fill="#77C8A7" width="10.876" height="0.413"/>
							</g>
							<g>
								<rect x="51.048" y="122.462" fill="#77C8A7" width="4.156" height="0.417"/>
								<g>
									<path fill="#77C8A7" d="M50.145,122.669c0-0.258,0.22-0.468,0.495-0.468c0.27,0,0.491,0.21,0.491,0.468
										c0,0.264-0.221,0.474-0.491,0.474C50.365,123.143,50.145,122.933,50.145,122.669z M50.405,122.669
										c0,0.123,0.103,0.223,0.234,0.223c0.125,0,0.227-0.1,0.227-0.223c0-0.119-0.102-0.219-0.227-0.219
										C50.508,122.45,50.405,122.55,50.405,122.669z"/>
								</g>
								<polygon fill="#77C8A7" points="54.897,122.755 58.767,126.449 59.077,126.153 55.207,122.462 								"/>
								<rect x="58.767" y="126.03" fill="#77C8A7" width="10.87" height="0.419"/>
							</g>
							<g>
								<rect x="56.414" y="140.495" fill="#77C8A7" width="14.654" height="0.42"/>
								<g>
									<path fill="#77C8A7" d="M56.005,140.235c0.271,0,0.495,0.211,0.495,0.469c0,0.26-0.224,0.471-0.495,0.471
										c-0.273,0-0.494-0.211-0.494-0.471C55.511,140.446,55.731,140.235,56.005,140.235z M56.005,140.923
										c0.128,0,0.231-0.096,0.231-0.219c0-0.119-0.103-0.221-0.231-0.221c-0.125,0-0.23,0.102-0.23,0.221
										C55.774,140.827,55.88,140.923,56.005,140.923z"/>
								</g>
							</g>
							<g>
								<rect x="57.752" y="139.216" fill="#77C8A7" width="10.869" height="0.418"/>
								<g>
									<path fill="#77C8A7" d="M57.343,138.956c0.27,0,0.495,0.211,0.495,0.475c0,0.258-0.225,0.467-0.495,0.467
										c-0.274,0-0.494-0.209-0.494-0.467C56.849,139.167,57.069,138.956,57.343,138.956z M57.343,139.649
										c0.125,0,0.231-0.1,0.231-0.219c0-0.127-0.105-0.225-0.231-0.225s-0.23,0.098-0.23,0.225
										C57.112,139.55,57.217,139.649,57.343,139.649z"/>
								</g>
							</g>
							<g>
								<rect x="46.67" y="130.619" fill="#77C8A7" width="22.801" height="0.417"/>
								<g>
									<path fill="#77C8A7" d="M46.258,130.355c0.274,0,0.495,0.212,0.495,0.47c0,0.262-0.221,0.472-0.495,0.472
										c-0.27,0-0.491-0.21-0.491-0.472C45.768,130.567,45.989,130.355,46.258,130.355z M46.258,131.048
										c0.129,0,0.231-0.1,0.231-0.223c0-0.121-0.102-0.221-0.231-0.221c-0.128,0-0.227,0.1-0.227,0.221
										C46.031,130.948,46.13,131.048,46.258,131.048z"/>
								</g>
							</g>
							<g>
								<rect x="59.094" y="137.942" fill="#77C8A7" width="10.873" height="0.414"/>
								<g>
									<path fill="#77C8A7" d="M58.684,137.679c0.271,0,0.492,0.209,0.492,0.473c0,0.26-0.221,0.469-0.492,0.469
										c-0.273,0-0.495-0.209-0.495-0.469C58.189,137.888,58.411,137.679,58.684,137.679z M58.684,138.37
										c0.129,0,0.228-0.098,0.228-0.219c0-0.119-0.099-0.215-0.228-0.215c-0.128,0-0.233,0.096-0.233,0.215
										C58.451,138.272,58.556,138.37,58.684,138.37z"/>
								</g>
							</g>
							<g>
								<rect x="60.428" y="136.663" fill="#77C8A7" width="10.876" height="0.422"/>
								<g>
									<path fill="#77C8A7" d="M60.022,136.404c0.271,0,0.491,0.21,0.491,0.47c0,0.256-0.22,0.471-0.491,0.471
										c-0.273,0-0.494-0.215-0.494-0.471C59.528,136.614,59.749,136.404,60.022,136.404z M60.022,137.098
										c0.126,0,0.227-0.104,0.227-0.224c0-0.125-0.101-0.219-0.227-0.219c-0.128,0-0.23,0.094-0.23,0.219
										C59.792,136.993,59.895,137.098,60.022,137.098z"/>
								</g>
							</g>
							<g>
								<polygon fill="#77C8A7" points="55.254,134.725 58.371,131.753 58.682,132.049 55.563,135.021 								"/>
								<g>
									<path fill="#77C8A7" d="M55.132,134.669c0.272,0,0.494,0.207,0.494,0.471c0,0.259-0.222,0.469-0.494,0.469
										c-0.273,0-0.491-0.21-0.491-0.469C54.641,134.876,54.858,134.669,55.132,134.669z M55.132,135.358
										c0.128,0,0.23-0.1,0.23-0.219c0-0.125-0.103-0.22-0.23-0.22c-0.125,0-0.231,0.095-0.231,0.22
										C54.901,135.259,55.007,135.358,55.132,135.358z"/>
								</g>
								<rect x="58.381" y="131.769" fill="#77C8A7" width="11.177" height="0.422"/>
							</g>
							<g>
								<g>
									<rect x="51.667" y="139.048" fill="#77C8A7" width="4.064" height="0.422"/>
									<g>
										<path fill="#77C8A7" d="M51.259,138.79c0.271,0,0.495,0.213,0.495,0.469c0,0.26-0.224,0.473-0.495,0.473
											c-0.273,0-0.494-0.213-0.494-0.473C50.765,139.003,50.985,138.79,51.259,138.79z M51.259,139.479
											c0.128,0,0.231-0.094,0.231-0.221c0-0.119-0.103-0.219-0.231-0.219c-0.125,0-0.23,0.1-0.23,0.219
											C51.028,139.386,51.134,139.479,51.259,139.479z"/>
									</g>
								</g>
								<polygon fill="#77C8A7" points="55.425,139.173 59.294,135.482 59.604,135.779 55.731,139.47 								"/>
								<rect x="59.288" y="135.482" fill="#77C8A7" width="10.874" height="0.417"/>
							</g>
							<g>
								<rect x="49.505" y="137.768" fill="#77C8A7" width="5.963" height="0.417"/>
								<g>
									<path fill="#77C8A7" d="M49.097,137.501c0.271,0,0.494,0.215,0.494,0.471c0,0.262-0.224,0.471-0.494,0.471
										c-0.273,0-0.495-0.209-0.495-0.471C48.602,137.716,48.823,137.501,49.097,137.501z M49.097,138.192
										c0.125,0,0.23-0.1,0.23-0.221c0-0.117-0.105-0.217-0.23-0.217c-0.128,0-0.231,0.1-0.231,0.217
										C48.866,138.093,48.968,138.192,49.097,138.192z"/>
								</g>
								<polygon fill="#77C8A7" points="55.161,137.886 59.027,134.197 59.341,134.487 55.471,138.185 								"/>
								<rect x="59.024" y="134.197" fill="#77C8A7" width="10.876" height="0.415"/>
							</g>
							<g>
								<rect x="51.048" y="136.482" fill="#77C8A7" width="4.156" height="0.417"/>
								<g>
									<path fill="#77C8A7" d="M50.64,136.222c0.27,0,0.491,0.212,0.491,0.469c0,0.258-0.221,0.473-0.491,0.473
										c-0.274,0-0.495-0.215-0.495-0.473C50.145,136.434,50.365,136.222,50.64,136.222z M50.64,136.915
										c0.125,0,0.227-0.1,0.227-0.225c0-0.12-0.102-0.219-0.227-0.219c-0.132,0-0.234,0.099-0.234,0.219
										C50.405,136.815,50.508,136.915,50.64,136.915z"/>
								</g>
								<polygon fill="#77C8A7" points="54.897,136.603 58.767,132.911 59.077,133.208 55.207,136.899 								"/>
								<rect x="58.767" y="132.911" fill="#77C8A7" width="10.87" height="0.424"/>
							</g>
						</g>
					</g>
				</g>
				<g>
					<g>
						<g opacity="0.13">
							<path opacity="0" fill="#010101" d="M77.31,145.731c-2.136-0.775-4.137-1.949-5.939-3.494
								c-1.728-1.471-3.237-3.248-4.497-5.276c-1.238-2.002-2.198-4.206-2.853-6.55c-0.669-2.391-1.009-4.875-1.009-7.39
								c0-1.282,0.092-2.581,0.27-3.86l0.456-3.236l3.267,0.976c1.199,0.36,2.441,0.54,3.708,0.54c2.148,0,4.291-0.545,6.203-1.578
								l1.424-0.771l1.423,0.771c0.02,0.011,0.043,0.021,0.066,0.037h0.007c0.029,0.016,0.059,0.032,0.085,0.045
								c1.872,0.983,3.961,1.496,6.045,1.496c1.262,0,2.512-0.18,3.704-0.54l3.27-0.976l0.451,3.236
								c0.185,1.279,0.274,2.578,0.274,3.86c0,2.49-0.333,4.956-0.992,7.327c-0.646,2.322-1.589,4.512-2.809,6.505
								c-1.236,2.019-2.719,3.79-4.419,5.263c-1.774,1.539-3.738,2.725-5.844,3.527l-0.049,0.021
								c-0.063,0.021-0.125,0.045-0.185,0.066l-1.028,0.377L77.31,145.731z"/>
							<path opacity="0.0769" fill="#010101" d="M77.237,145.661c-2.14-0.779-4.14-1.953-5.939-3.494
								c-1.727-1.471-3.237-3.25-4.496-5.277c-1.239-2-2.202-4.209-2.854-6.549c-0.673-2.393-1.013-4.879-1.013-7.393
								c0-1.281,0.09-2.582,0.274-3.853l0.455-3.241l3.267,0.975c1.196,0.362,2.442,0.542,3.704,0.542
								c2.153,0,4.295-0.542,6.203-1.579l1.427-0.771l1.424,0.771c0.02,0.016,0.042,0.021,0.063,0.033l0.007,0.004
								c0.029,0.017,0.063,0.029,0.088,0.048c1.866,0.978,3.959,1.494,6.044,1.494c1.26,0,2.505-0.18,3.706-0.542l3.265-0.975
								l0.459,3.241c0.178,1.271,0.27,2.571,0.27,3.853c0,2.492-0.336,4.961-0.993,7.326c-0.645,2.324-1.588,4.516-2.808,6.508
								c-1.236,2.018-2.719,3.789-4.419,5.266c-1.771,1.541-3.738,2.729-5.847,3.525l-0.049,0.021
								c-0.06,0.02-0.122,0.045-0.185,0.066l-1.025,0.375L77.237,145.661z"/>
							<path opacity="0.1538" fill="#010101" d="M77.161,145.595c-2.136-0.783-4.136-1.957-5.942-3.498
								c-1.721-1.475-3.237-3.246-4.489-5.279c-1.242-2-2.201-4.205-2.857-6.549c-0.669-2.385-1.012-4.877-1.012-7.39
								c0-1.286,0.092-2.578,0.273-3.856l0.456-3.238l3.267,0.979c1.199,0.355,2.445,0.537,3.704,0.537
								c2.156,0,4.298-0.544,6.206-1.58l1.424-0.77l1.423,0.77c0.024,0.014,0.043,0.025,0.063,0.033l0.006,0.007
								c0.033,0.015,0.066,0.025,0.093,0.048c1.868,0.974,3.955,1.492,6.044,1.492c1.259,0,2.505-0.182,3.701-0.537l3.27-0.979
								l0.455,3.238c0.178,1.278,0.271,2.57,0.271,3.856c0,2.491-0.336,4.956-0.989,7.329c-0.646,2.322-1.589,4.512-2.812,6.502
								c-1.232,2.018-2.719,3.789-4.417,5.264c-1.772,1.545-3.743,2.73-5.847,3.527l-0.053,0.021
								c-0.059,0.021-0.118,0.045-0.181,0.072l-1.031,0.367L77.161,145.595z"/>
							<path opacity="0.2308" fill="#010101" d="M77.089,145.522c-2.14-0.779-4.136-1.951-5.943-3.494
								c-1.727-1.471-3.236-3.25-4.492-5.279c-1.236-2.005-2.198-4.205-2.857-6.553c-0.669-2.387-1.009-4.871-1.009-7.387
								c0-1.285,0.093-2.58,0.271-3.86l0.454-3.235l3.27,0.977c1.199,0.354,2.442,0.539,3.704,0.539
								c2.149,0,4.297-0.547,6.203-1.578l1.427-0.768l1.424,0.768c0.022,0.01,0.042,0.023,0.063,0.035h0.007
								c0.033,0.018,0.06,0.033,0.092,0.047c1.865,0.979,3.955,1.496,6.044,1.496c1.259,0,2.505-0.185,3.702-0.539l3.265-0.977
								l0.459,3.235c0.178,1.28,0.27,2.575,0.27,3.86c0,2.492-0.335,4.955-0.993,7.325c-0.645,2.323-1.591,4.512-2.811,6.509
								c-1.229,2.014-2.716,3.781-4.413,5.26c-1.774,1.541-3.744,2.732-5.847,3.527l-0.053,0.02
								c-0.06,0.025-0.119,0.045-0.184,0.072l-1.025,0.373L77.089,145.522z"/>
							<path opacity="0.3077" fill="#010101" d="M77.013,145.45c-2.136-0.777-4.133-1.957-5.938-3.494
								c-1.728-1.473-3.237-3.25-4.497-5.279c-1.238-2.004-2.198-4.205-2.854-6.552c-0.673-2.388-1.009-4.873-1.009-7.384
								c0-1.287,0.092-2.584,0.27-3.859l0.455-3.239l3.269,0.978c1.194,0.359,2.443,0.539,3.706,0.539
								c2.148,0,4.294-0.547,6.202-1.577l1.424-0.774l1.424,0.774c0.023,0.009,0.047,0.021,0.065,0.032h0.008
								c0.029,0.021,0.059,0.033,0.089,0.051c1.868,0.977,3.958,1.494,6.041,1.494c1.259,0,2.508-0.18,3.708-0.539l3.263-0.978
								l0.458,3.239c0.182,1.275,0.271,2.572,0.271,3.859c0,2.488-0.333,4.953-0.992,7.322c-0.646,2.324-1.589,4.512-2.809,6.504
								c-1.236,2.021-2.719,3.791-4.417,5.266c-1.776,1.543-3.741,2.729-5.843,3.531l-0.053,0.016
								c-0.059,0.021-0.121,0.051-0.185,0.07l-1.028,0.375L77.013,145.45z"/>
							<path opacity="0.3846" fill="#010101" d="M76.941,145.38c-2.14-0.781-4.136-1.955-5.939-3.498
								c-1.727-1.469-3.237-3.242-4.496-5.275c-1.239-1.999-2.199-4.207-2.854-6.547c-0.672-2.391-1.009-4.877-1.009-7.391
								c0-1.286,0.093-2.58,0.271-3.857l0.455-3.242l3.27,0.981c1.192,0.354,2.438,0.542,3.705,0.542
								c2.149,0,4.292-0.555,6.203-1.582l1.423-0.773l1.424,0.773c0.02,0.011,0.039,0.021,0.063,0.033l0.009,0.004
								c0.026,0.014,0.06,0.029,0.093,0.047c1.866,0.977,3.952,1.498,6.037,1.498c1.263,0,2.505-0.188,3.702-0.542l3.269-0.981
								l0.455,3.242c0.181,1.277,0.273,2.571,0.273,3.857c0,2.491-0.333,4.956-0.992,7.324c-0.645,2.325-1.588,4.516-2.808,6.506
								c-1.236,2.016-2.722,3.789-4.419,5.266c-1.773,1.543-3.738,2.729-5.844,3.525l-0.053,0.02
								c-0.062,0.025-0.122,0.047-0.181,0.07l-1.028,0.373L76.941,145.38z"/>
							<path opacity="0.4615" fill="#010101" d="M76.868,145.308c-2.136-0.779-4.14-1.953-5.942-3.49
								c-1.724-1.475-3.237-3.25-4.493-5.28c-1.24-2.003-2.202-4.204-2.857-6.552c-0.67-2.387-1.012-4.871-1.012-7.391
								c0-1.283,0.091-2.576,0.273-3.854l0.459-3.238l3.265,0.975c1.197,0.357,2.443,0.542,3.706,0.542
								c2.152,0,4.294-0.548,6.202-1.582l1.424-0.772l1.427,0.772c0.02,0.013,0.04,0.025,0.06,0.036l0.01,0.004
								c0.029,0.012,0.059,0.033,0.089,0.044c1.868,0.981,3.955,1.498,6.044,1.498c1.258,0,2.508-0.185,3.701-0.542l3.27-0.975
								l0.455,3.238c0.182,1.273,0.271,2.57,0.271,3.854c0,2.492-0.333,4.959-0.989,7.328c-0.646,2.324-1.592,4.512-2.808,6.506
								c-1.236,2.014-2.719,3.791-4.42,5.266c-1.772,1.539-3.737,2.727-5.847,3.525l-0.05,0.018
								c-0.059,0.023-0.121,0.047-0.181,0.07l-1.031,0.373L76.868,145.308z"/>
							<path opacity="0.5385" fill="#010101" d="M76.789,145.237c-2.137-0.777-4.133-1.953-5.939-3.494
								c-1.72-1.475-3.236-3.246-4.489-5.277c-1.24-2.005-2.202-4.206-2.861-6.553c-0.665-2.387-1.009-4.871-1.009-7.386
								c0-1.282,0.093-2.582,0.274-3.86l0.451-3.236l3.271,0.975c1.195,0.363,2.442,0.541,3.708,0.541
								c2.149,0,4.294-0.542,6.2-1.574l1.427-0.775l1.424,0.775c0.021,0.01,0.043,0.018,0.063,0.032h0.007
								c0.033,0.017,0.062,0.033,0.092,0.046c1.865,0.979,3.955,1.496,6.038,1.496c1.265,0,2.511-0.178,3.708-0.541l3.269-0.975
								l0.456,3.236c0.178,1.278,0.27,2.578,0.27,3.86c0,2.49-0.33,4.952-0.989,7.327c-0.646,2.326-1.595,4.512-2.811,6.501
								c-1.232,2.021-2.722,3.788-4.417,5.267c-1.773,1.539-3.741,2.725-5.847,3.527l-0.053,0.021
								c-0.06,0.021-0.119,0.049-0.182,0.066l-1.028,0.377L76.789,145.237z"/>
							<path opacity="0.6154" fill="#010101" d="M76.716,145.167c-2.136-0.779-4.133-1.953-5.939-3.494
								c-1.728-1.471-3.236-3.25-4.493-5.275c-1.236-2.005-2.198-4.211-2.857-6.553c-0.67-2.385-1.009-4.877-1.009-7.387
								c0-1.285,0.092-2.582,0.27-3.856l0.455-3.241l3.27,0.98c1.197,0.356,2.442,0.532,3.705,0.532
								c2.148,0,4.298-0.542,6.203-1.575l1.424-0.771l1.423,0.771c0.024,0.012,0.047,0.021,0.066,0.033l0.007,0.004
								c0.029,0.016,0.059,0.029,0.089,0.047c1.869,0.979,3.958,1.491,6.042,1.491c1.265,0,2.512-0.176,3.704-0.532l3.267-0.98
								l0.461,3.237c0.178,1.278,0.271,2.575,0.271,3.86c0,2.492-0.336,4.957-0.996,7.322c-0.646,2.327-1.589,4.516-2.805,6.508
								c-1.236,2.016-2.723,3.789-4.422,5.266c-1.77,1.539-3.739,2.729-5.84,3.525l-0.053,0.021
								c-0.059,0.02-0.122,0.045-0.185,0.066l-1.028,0.375L76.716,145.167z"/>
							<path opacity="0.6923" fill="#010101" d="M76.644,145.093c-2.136-0.775-4.134-1.947-5.939-3.49
								c-1.728-1.475-3.237-3.248-4.496-5.276c-1.239-2.002-2.198-4.206-2.854-6.55c-0.672-2.391-1.013-4.875-1.013-7.393
								c0-1.285,0.097-2.583,0.274-3.855l0.455-3.237l3.27,0.978c1.192,0.355,2.439,0.537,3.701,0.537
								c2.153,0,4.297-0.545,6.207-1.577l1.423-0.772l1.424,0.772c0.021,0.011,0.043,0.024,0.066,0.029l0.006,0.007
								c0.027,0.016,0.06,0.029,0.086,0.049c1.869,0.974,3.962,1.492,6.044,1.492c1.26,0,2.505-0.182,3.706-0.537l3.265-0.978
								l0.456,3.237c0.181,1.272,0.273,2.57,0.273,3.855c0,2.492-0.333,4.957-0.993,7.326c-0.643,2.326-1.588,4.514-2.808,6.505
								c-1.232,2.021-2.719,3.79-4.417,5.265c-1.776,1.545-3.741,2.73-5.847,3.531l-0.053,0.016
								c-0.056,0.02-0.119,0.047-0.182,0.066l-1.028,0.379L76.644,145.093z"/>
							<path opacity="0.7692" fill="#010101" d="M76.568,145.026c-2.139-0.777-4.136-1.953-5.939-3.492
								c-1.724-1.473-3.236-3.25-4.493-5.279c-1.24-2.004-2.202-4.206-2.854-6.553c-0.672-2.387-1.011-4.871-1.011-7.391
								c0-1.278,0.092-2.576,0.273-3.854l0.455-3.238l3.266,0.976c1.197,0.358,2.442,0.54,3.705,0.54
								c2.152,0,4.295-0.547,6.203-1.582l1.428-0.771l1.423,0.774c0.02,0.013,0.04,0.023,0.06,0.029l0.013,0.006
								c0.026,0.014,0.056,0.031,0.089,0.047c1.866,0.979,3.955,1.496,6.042,1.496c1.262,0,2.508-0.182,3.705-0.54l3.266-0.976
								l0.458,3.238c0.178,1.277,0.267,2.575,0.267,3.854c0,2.496-0.33,4.958-0.989,7.328c-0.646,2.324-1.589,4.512-2.809,6.506
								c-1.232,2.021-2.723,3.785-4.42,5.264c-1.772,1.545-3.741,2.729-5.847,3.529l-0.046,0.02
								c-0.065,0.023-0.125,0.043-0.188,0.068l-1.024,0.371L76.568,145.026z"/>
							<path opacity="0.8462" fill="#010101" d="M76.498,144.956c-2.142-0.779-4.139-1.953-5.945-3.494
								c-1.72-1.471-3.236-3.246-4.488-5.279c-1.24-2.002-2.202-4.207-2.861-6.551c-0.666-2.387-1.005-4.875-1.005-7.387
								c0-1.285,0.089-2.582,0.267-3.857l0.462-3.24l3.263,0.979c1.199,0.355,2.446,0.538,3.704,0.538
								c2.153,0,4.298-0.546,6.203-1.577l1.423-0.77l1.428,0.77c0.022,0.01,0.042,0.021,0.063,0.033h0.006
								c0.033,0.018,0.066,0.033,0.092,0.05c1.865,0.978,3.955,1.494,6.041,1.494c1.263,0,2.509-0.183,3.706-0.538l3.269-0.979
								l0.456,3.24c0.177,1.275,0.27,2.57,0.27,3.857c0,2.492-0.333,4.955-0.989,7.326c-0.646,2.318-1.592,4.514-2.808,6.504
								c-1.236,2.018-2.723,3.789-4.42,5.268c-1.773,1.543-3.741,2.725-5.846,3.523l-0.053,0.02c-0.06,0.021-0.118,0.051-0.181,0.07
								l-1.032,0.375L76.498,144.956z"/>
							<path opacity="0.9231" fill="#010101" d="M76.419,144.886c-2.135-0.781-4.132-1.955-5.938-3.49
								c-1.724-1.477-3.237-3.256-4.493-5.283c-1.236-2.003-2.198-4.205-2.857-6.548c-0.666-2.394-1.009-4.876-1.009-7.391
								c0-1.286,0.092-2.583,0.27-3.856l0.456-3.235l3.269,0.974c1.197,0.355,2.446,0.535,3.706,0.535
								c2.148,0,4.294-0.542,6.202-1.574l1.424-0.773l1.427,0.773c0.023,0.011,0.043,0.018,0.063,0.033l0.007,0.003
								c0.033,0.015,0.059,0.029,0.092,0.048c1.866,0.977,3.955,1.49,6.042,1.49c1.262,0,2.508-0.18,3.701-0.535l3.27-0.974
								l0.458,3.235c0.177,1.273,0.27,2.57,0.27,3.856c0,2.492-0.333,4.956-0.992,7.325c-0.646,2.325-1.592,4.516-2.808,6.505
								c-1.236,2.017-2.723,3.79-4.42,5.267c-1.772,1.543-3.741,2.729-5.843,3.525l-0.053,0.02c-0.059,0.025-0.122,0.047-0.185,0.07
								l-1.027,0.375L76.419,144.886z"/>
							<path fill="#010101" d="M76.348,144.812c-2.136-0.777-4.134-1.953-5.939-3.488c-1.728-1.477-3.237-3.25-4.496-5.28
								c-1.236-2.003-2.198-4.204-2.854-6.552c-0.673-2.387-1.009-4.871-1.009-7.389c0-1.279,0.093-2.578,0.271-3.856l0.455-3.237
								l3.27,0.975c1.193,0.357,2.439,0.541,3.705,0.541c2.149,0,4.297-0.547,6.203-1.582l1.423-0.771l1.424,0.771
								c0.02,0.014,0.042,0.022,0.063,0.033l0.009,0.008c0.031,0.015,0.06,0.033,0.086,0.044c1.873,0.978,3.958,1.497,6.044,1.497
								c1.263,0,2.508-0.184,3.705-0.541l3.269-0.975l0.456,3.237c0.181,1.278,0.273,2.577,0.273,3.856
								c0,2.49-0.337,4.959-0.996,7.326c-0.646,2.324-1.588,4.512-2.804,6.502c-1.236,2.021-2.723,3.793-4.423,5.268
								c-1.773,1.541-3.737,2.729-5.841,3.525l-0.052,0.02c-0.06,0.027-0.122,0.047-0.185,0.068l-1.028,0.375L76.348,144.812z"/>
						</g>
						<g>
							<linearGradient id="SVGID_1_" gradientUnits="userSpaceOnUse" x1="77.3774" y1="145.1865" x2="77.3774" y2="114.1709">
								<stop  offset="0" style="stop-color:#ABB2BA"/>
								<stop  offset="0.2032" style="stop-color:#C3C8CD"/>
								<stop  offset="0.5358" style="stop-color:#E4E6E8"/>
								<stop  offset="0.8134" style="stop-color:#F8F8F9"/>
								<stop  offset="1" style="stop-color:#FFFFFF"/>
							</linearGradient>
							<path fill="url(#SVGID_1_)" d="M76.348,144.812c-2.136-0.777-4.134-1.953-5.939-3.488c-1.728-1.477-3.237-3.25-4.496-5.28
								c-1.236-2.003-2.198-4.204-2.854-6.552c-0.673-2.387-1.009-4.871-1.009-7.389c0-1.279,0.093-2.578,0.271-3.856l0.455-3.237
								l3.27,0.975c1.193,0.357,2.439,0.541,3.705,0.541c2.149,0,4.297-0.547,6.203-1.582l1.423-0.771l1.424,0.771
								c0.02,0.014,0.042,0.022,0.063,0.033l0.009,0.008c0.031,0.015,0.06,0.033,0.086,0.044c1.873,0.978,3.958,1.497,6.044,1.497
								c1.263,0,2.508-0.184,3.705-0.541l3.269-0.975l0.456,3.237c0.181,1.278,0.273,2.577,0.273,3.856
								c0,2.49-0.337,4.959-0.996,7.326c-0.646,2.324-1.588,4.512-2.804,6.502c-1.236,2.021-2.723,3.793-4.423,5.268
								c-1.773,1.541-3.737,2.729-5.841,3.525l-0.052,0.02c-0.06,0.027-0.122,0.047-0.185,0.068l-1.028,0.375L76.348,144.812z"/>
							<linearGradient id="SVGID_2_" gradientUnits="userSpaceOnUse" x1="77.3755" y1="116.2832" x2="77.3755" y2="143.2217">
								<stop  offset="0" style="stop-color:#ABB2BA"/>
								<stop  offset="0.2032" style="stop-color:#C3C8CD"/>
								<stop  offset="0.5358" style="stop-color:#E4E6E8"/>
								<stop  offset="0.8134" style="stop-color:#F8F8F9"/>
								<stop  offset="1" style="stop-color:#FFFFFF"/>
							</linearGradient>
							<path fill="url(#SVGID_2_)" d="M77.033,143.099c-1.919-0.697-3.715-1.756-5.343-3.146c-1.579-1.344-2.962-2.972-4.116-4.844
								c-1.154-1.859-2.043-3.91-2.657-6.088c-0.626-2.24-0.945-4.564-0.945-6.918c0-1.201,0.088-2.417,0.253-3.615l0.152-1.08
								l1.09,0.33c1.381,0.416,2.824,0.619,4.282,0.619c2.481,0,4.957-0.627,7.152-1.818l0.474-0.255l0.474,0.255
								c0.037,0.023,0.073,0.038,0.109,0.061c0.022,0.011,0.049,0.025,0.076,0.038c2.149,1.126,4.559,1.72,6.967,1.72
								c1.457,0,2.897-0.203,4.282-0.619l1.087-0.33l0.151,1.08c0.172,1.198,0.257,2.414,0.257,3.615
								c0,2.332-0.313,4.644-0.929,6.854c-0.6,2.17-1.479,4.201-2.61,6.052c-1.137,1.858-2.499,3.485-4.054,4.835
								c-1.599,1.391-3.372,2.459-5.261,3.178l-0.052,0.016c-0.053,0.025-0.106,0.047-0.156,0.063l-0.342,0.123L77.033,143.099z"/>
							<path fill="#77C8A7" d="M89.57,118.614c-1.477,0.441-3.005,0.664-4.568,0.664c-2.587,0-5.135-0.633-7.429-1.838
								c-0.066-0.033-0.132-0.066-0.198-0.099c-2.346,1.267-4.966,1.937-7.626,1.937c-1.563,0-3.091-0.223-4.568-0.664
								c-0.165,1.154-0.244,2.324-0.244,3.488c0,9.26,5.088,17.465,12.438,20.139c0.066-0.021,0.132-0.049,0.198-0.074
								c7.241-2.748,12.244-10.887,12.244-20.064C89.817,120.938,89.731,119.769,89.57,118.614z"/>
						</g>
					</g>
				</g>
			</g>
		</g>
	</g>
	<g>
		<path fill="#77C8A7" stroke="#ADDBC8" d="M95.849,123.07h7.256c1.779,0,3.031,0.446,3.86,1.276
			c0.566,0.568,0.909,1.315,0.909,2.289v0.041c0,1.642-0.93,2.614-2.184,3.161c1.719,0.567,2.81,1.54,2.81,3.464v0.041
			c0,2.432-1.98,3.911-5.355,3.911h-7.296V123.07z M102.134,128.724c1.191,0,1.859-0.405,1.859-1.235v-0.042
			c0-0.77-0.606-1.215-1.778-1.215h-2.546v2.492H102.134z M102.699,134.093c1.193,0,1.88-0.469,1.88-1.299v-0.039
			c0-0.771-0.606-1.275-1.919-1.275h-2.991v2.613H102.699z"/>
		<path fill="#77C8A7" stroke="#ADDBC8" d="M110.154,122.462h3.84v14.792h-3.84V122.462z"/>
		<path fill="#77C8A7" stroke="#ADDBC8" d="M115.691,131.821v-0.039c0-3.121,2.546-5.734,6.062-5.734
			c3.497,0,6.023,2.574,6.023,5.695v0.039c0,3.121-2.546,5.734-6.063,5.734C118.216,137.517,115.691,134.942,115.691,131.821z
			 M124.037,131.821v-0.039c0-1.338-0.969-2.472-2.323-2.472c-1.395,0-2.285,1.114-2.285,2.433v0.039
			c0,1.337,0.97,2.473,2.324,2.473C123.148,134.255,124.037,133.14,124.037,131.821z"/>
		<path fill="#77C8A7" stroke="#ADDBC8" d="M128.948,131.821v-0.039c0-3.102,2.402-5.713,5.859-5.713
			c2.244,0,3.738,0.973,4.667,2.45l-2.607,1.944c-0.524-0.729-1.111-1.153-2.041-1.153c-1.232,0-2.142,1.095-2.142,2.433v0.039
			c0,1.418,0.89,2.492,2.182,2.492c0.91,0,1.497-0.426,2.103-1.135l2.568,1.863c-1.012,1.499-2.467,2.514-4.872,2.514
			C131.372,137.517,128.948,134.925,128.948,131.821z"/>
		<path fill="#77C8A7" stroke="#ADDBC8" d="M140.889,122.462h3.839v7.497l2.97-3.667h4.346l-3.798,4.396l3.898,6.565h-4.224
			l-2.204-3.728l-0.988,1.152v2.575h-3.839V122.462z"/>
		<path fill="#77C8A7" stroke="#ADDBC8" d="M152.022,131.821v-0.039c0-3.102,2.404-5.713,5.86-5.713c2.245,0,3.737,0.973,4.668,2.45
			l-2.607,1.944c-0.525-0.729-1.113-1.153-2.042-1.153c-1.233,0-2.143,1.095-2.143,2.433v0.039c0,1.418,0.89,2.492,2.182,2.492
			c0.911,0,1.497-0.426,2.103-1.135l2.567,1.863c-1.01,1.499-2.465,2.514-4.871,2.514
			C154.446,137.517,152.022,134.925,152.022,131.821z"/>
		<path fill="#77C8A7" stroke="#ADDBC8" d="M163.963,122.462h3.84v5.329c0.707-0.913,1.717-1.743,3.274-1.743
			c2.324,0,3.718,1.541,3.718,4.031v7.175h-3.838v-5.938c0-1.195-0.628-1.845-1.538-1.845c-0.93,0-1.617,0.649-1.617,1.845v5.938
			h-3.84V122.462z"/>
		<path fill="#77C8A7" stroke="#ADDBC8" d="M176.228,134.112v-0.041c0-2.27,1.718-3.442,4.285-3.442c1.011,0,2,0.202,2.628,0.425
			v-0.184c0-1.135-0.707-1.781-2.183-1.781c-1.152,0-2.041,0.222-3.011,0.607l-0.788-2.715c1.232-0.506,2.546-0.851,4.425-0.851
			c1.961,0,3.296,0.464,4.164,1.337c0.828,0.81,1.172,1.944,1.172,3.484v6.302h-3.8v-1.136c-0.746,0.829-1.776,1.377-3.212,1.377
			C177.826,137.495,176.228,136.3,176.228,134.112z M183.182,133.282v-0.508c-0.386-0.162-0.931-0.283-1.497-0.283
			c-1.111,0-1.758,0.547-1.758,1.357v0.039c0,0.752,0.565,1.198,1.353,1.198C182.393,135.086,183.182,134.376,183.182,133.282z"/>
		<path fill="#77C8A7" stroke="#ADDBC8" d="M188.877,122.462h4.001v2.838h-4.001V122.462z M188.959,126.292h3.841v10.962h-3.841
			V126.292z"/>
		<path fill="#77C8A7" stroke="#ADDBC8" d="M194.938,126.292h3.839v1.539c0.708-0.912,1.719-1.783,3.275-1.783
			c2.323,0,3.718,1.541,3.718,4.031v7.175h-3.84v-5.938c0-1.195-0.625-1.845-1.536-1.845c-0.928,0-1.617,0.649-1.617,1.845v5.938
			h-3.839V126.292z"/>
		<path fill="#77C8A7" stroke="#ADDBC8" d="M213.568,123.07h11.379v3.343h-7.498v2.148h6.791v3.1h-6.791v2.249h7.599v3.344h-11.48
			V123.07z"/>
		<path fill="#77C8A7" stroke="#ADDBC8" d="M226.825,126.292h3.84v1.539c0.708-0.912,1.716-1.783,3.272-1.783
			c2.326,0,3.722,1.541,3.722,4.031v7.175h-3.842v-5.938c0-1.195-0.626-1.845-1.536-1.845c-0.93,0-1.616,0.649-1.616,1.845v5.938
			h-3.84V126.292z"/>
		<path fill="#77C8A7" stroke="#ADDBC8" d="M239.089,134.112v-0.041c0-2.27,1.719-3.442,4.284-3.442
			c1.012,0,2.002,0.202,2.628,0.425v-0.184c0-1.135-0.708-1.781-2.184-1.781c-1.151,0-2.04,0.222-3.01,0.607l-0.79-2.715
			c1.233-0.506,2.548-0.851,4.426-0.851c1.961,0,3.294,0.464,4.165,1.337c0.827,0.81,1.172,1.944,1.172,3.484v6.302h-3.8v-1.136
			c-0.747,0.829-1.778,1.377-3.214,1.377C240.687,137.495,239.089,136.3,239.089,134.112z M246.041,133.282v-0.508
			c-0.383-0.162-0.929-0.283-1.494-0.283c-1.112,0-1.758,0.547-1.758,1.357v0.039c0,0.752,0.565,1.198,1.353,1.198
			C245.253,135.086,246.041,134.376,246.041,133.282z"/>
		<path fill="#77C8A7" stroke="#ADDBC8" d="M255.578,135.916v1.338h-3.84v-14.792h3.84v5.288c0.748-0.911,1.677-1.702,3.315-1.702
			c2.604,0,4.849,2.169,4.849,5.674v0.041c0,3.564-2.244,5.732-4.829,5.732C257.255,137.495,256.286,136.746,255.578,135.916z
			 M259.965,131.782v-0.039c0-1.439-0.99-2.473-2.245-2.473c-1.232,0-2.223,1.033-2.223,2.473v0.039c0,1.459,0.99,2.492,2.223,2.492
			C258.975,134.274,259.965,133.263,259.965,131.782z"/>
		<path fill="#77C8A7" stroke="#ADDBC8" d="M265.479,122.462h3.841v14.792h-3.841V122.462z"/>
		<path fill="#77C8A7" stroke="#ADDBC8" d="M271.016,131.821v-0.039c0-3.201,2.284-5.734,5.519-5.734
			c3.777,0,5.515,2.777,5.515,5.998c0,0.244,0,0.527-0.017,0.787h-7.317c0.3,1.198,1.171,1.807,2.364,1.807
			c0.91,0,1.636-0.345,2.424-1.113l2.122,1.761c-1.051,1.337-2.565,2.229-4.749,2.229
			C273.44,137.517,271.016,135.228,271.016,131.821z M278.451,130.87c-0.14-1.215-0.849-1.984-1.897-1.984
			c-1.013,0-1.699,0.79-1.901,1.984H278.451z"/>
		<path fill="#77C8A7" stroke="#ADDBC8" d="M283.282,131.821v-0.039c0-3.565,2.223-5.734,4.808-5.734
			c1.657,0,2.627,0.752,3.356,1.582v-5.168h3.838v14.792h-3.838v-1.46c-0.749,0.91-1.699,1.701-3.336,1.701
			C285.522,137.495,283.282,135.327,283.282,131.821z M291.507,131.782v-0.039c0-1.439-0.991-2.473-2.225-2.473
			c-1.231,0-2.24,1.014-2.24,2.473v0.039c0,1.459,1.009,2.492,2.24,2.492C290.516,134.274,291.507,133.241,291.507,131.782z"/>
		<path fill="#77C8A7" stroke="#ADDBC8" d="M303.165,123.07h11.377v3.343h-7.498v2.148h6.789v3.1h-6.789v2.249h7.598v3.344h-11.477
			V123.07z"/>
		<path fill="#77C8A7" stroke="#ADDBC8" d="M316.054,134.295l5.296-4.053c1.312-1.034,1.817-1.703,1.817-2.553
			c0-0.89-0.625-1.437-1.576-1.437c-0.948,0-1.697,0.547-2.81,1.822l-2.646-2.208c1.516-1.966,3.012-3.04,5.76-3.04
			c3.09,0,5.213,1.844,5.213,4.52v0.039c0,2.27-1.172,3.445-3.272,4.963l-2.425,1.702h5.84v3.203h-11.197V134.295z"/>
		<path fill="#77C8A7" stroke="#ADDBC8" d="M329.251,123.07h11.377v3.343h-7.498v2.148h6.79v3.1h-6.79v2.249h7.6v3.344h-11.479
			V123.07z"/>
		<path fill="#77C8A7" stroke="#ADDBC8" d="M348.325,123.07h11.376v3.343h-7.496v2.148h6.788v3.1h-6.788v2.249h7.598v3.344h-11.478
			V123.07z"/>
		<path fill="#77C8A7" stroke="#ADDBC8" d="M361.579,126.292h3.839v1.539c0.708-0.912,1.72-1.783,3.274-1.783
			c2.322,0,3.719,1.541,3.719,4.031v7.175h-3.838v-5.938c0-1.195-0.626-1.845-1.537-1.845c-0.93,0-1.618,0.649-1.618,1.845v5.938
			h-3.839V126.292z"/>
		<path fill="#77C8A7" stroke="#ADDBC8" d="M373.946,131.821v-0.039c0-3.102,2.403-5.713,5.86-5.713c2.241,0,3.739,0.973,4.668,2.45
			l-2.607,1.944c-0.524-0.729-1.111-1.153-2.042-1.153c-1.23,0-2.141,1.095-2.141,2.433v0.039c0,1.418,0.888,2.492,2.182,2.492
			c0.91,0,1.495-0.426,2.104-1.135l2.564,1.863c-1.011,1.499-2.465,2.514-4.871,2.514
			C376.369,137.517,373.946,134.925,373.946,131.821z"/>
		<path fill="#77C8A7" stroke="#ADDBC8" d="M385.888,126.292h3.84v2.208c0.625-1.5,1.637-2.472,3.457-2.39v4.051h-0.324
			c-2,0-3.133,1.155-3.133,3.688v3.405h-3.84V126.292z"/>
		<path fill="#77C8A7" stroke="#ADDBC8" d="M394.253,139.603l1.193-2.694c0.606,0.365,1.25,0.587,1.676,0.587
			c0.383,0,0.646-0.102,0.89-0.445l-4.284-10.758h4.021l2.185,6.605l2.062-6.605h3.938l-4.001,10.698
			c-0.95,2.552-1.978,3.563-4.163,3.563C396.415,140.554,395.262,140.171,394.253,139.603z"/>
		<path fill="#77C8A7" stroke="#ADDBC8" d="M407.185,126.292h3.842v1.458c0.746-0.911,1.676-1.702,3.312-1.702
			c2.607,0,4.85,2.169,4.85,5.674v0.041c0,3.564-2.242,5.732-4.828,5.732c-1.657,0-2.627-0.749-3.333-1.579v4.577h-3.842V126.292z
			 M415.411,131.782v-0.039c0-1.439-0.992-2.473-2.244-2.473c-1.231,0-2.222,1.033-2.222,2.473v0.039
			c0,1.459,0.99,2.492,2.222,2.492C414.419,134.274,415.411,133.263,415.411,131.782z"/>
		<path fill="#77C8A7" stroke="#ADDBC8" d="M421.409,133.849v-4.457h-1.291v-3.1h1.291v-2.775h3.84v2.775h2.546v3.1h-2.546v3.705
			c0,0.773,0.345,1.097,1.051,1.097c0.505,0,0.99-0.143,1.456-0.364v3.018c-0.688,0.385-1.597,0.628-2.67,0.628
			C422.784,137.475,421.409,136.463,421.409,133.849z"/>
		<path fill="#77C8A7" stroke="#ADDBC8" d="M429.451,122.462h4.001v2.838h-4.001V122.462z M429.534,126.292h3.838v10.962h-3.838
			V126.292z"/>
		<path fill="#77C8A7" stroke="#ADDBC8" d="M435.067,131.821v-0.039c0-3.121,2.548-5.734,6.064-5.734
			c3.498,0,6.021,2.574,6.021,5.695v0.039c0,3.121-2.546,5.734-6.062,5.734C437.593,137.517,435.067,134.942,435.067,131.821z
			 M443.416,131.821v-0.039c0-1.338-0.973-2.472-2.324-2.472c-1.396,0-2.285,1.114-2.285,2.433v0.039
			c0,1.337,0.971,2.473,2.325,2.473C442.526,134.255,443.416,133.14,443.416,131.821z"/>
		<path fill="#77C8A7" stroke="#ADDBC8" d="M448.771,126.292h3.838v1.539c0.709-0.912,1.717-1.783,3.273-1.783
			c2.326,0,3.721,1.541,3.721,4.031v7.175h-3.842v-5.938c0-1.195-0.626-1.845-1.535-1.845c-0.931,0-1.617,0.649-1.617,1.845v5.938
			h-3.838V126.292z"/>
	</g>
</g>
<g>
	<g>
		<path fill="#77C8A8" stroke="#ACDBC7" stroke-width="2" d="M329.27,72.428c4.151-4.461,9.563-7.021,15.363-7.328v-0.034
			c7.676-0.004,7.913-0.009,8.05-0.012c0.06-0.002,0.1-0.002,0.865-0.002c3.858,0,7.001-3.417,7.001-7.615V44.206
			c0-2.451,1.826-4.441,4.082-4.441h2.229v17.672c0,7.986-5.972,14.48-13.312,14.48v0.004c-0.008,0-0.011,0-0.016-0.001v-0.002
			h-0.042c-0.022-0.001-0.048-0.001-0.071-0.001l-0.633-0.001c-0.658,0-1.865-0.001-4.062-0.001
			c-0.868-0.001-1.895-0.001-3.098-0.001c-4.522,0.04-8.775,1.978-11.991,5.474c-3.251,3.537-5.041,8.23-5.041,13.216
			c0,10.308,7.709,18.695,17.186,18.695h18.147c1.802,0,3.269,1.595,3.269,3.555v3.284h-1.489c-5.744,0-17.695,0-19.636,0.007
			l-0.217,0.002c-0.099,0-0.188,0-0.217,0c-12.87-0.083-23.342-11.543-23.342-25.544C322.296,83.714,324.772,77.26,329.27,72.428z"
			/>
		<path fill="#77C8A8" stroke="#ACDBC7" stroke-width="2" d="M393.36,93.997c0-0.038-18.809,0.002-18.845,0.003v-2.352
			c0-2.486,1.853-4.5,4.136-4.499c12.329,0.002,13.291-0.022,14.725-0.022c3.859,0,7-3.416,7-7.613c0-4.198-3.141-7.614-7-7.614
			c-1.615,0-1.934-0.022-11.043-0.022c-9.477,0-17.186,8.386-17.186,18.694c0,10.307,7.709,18.696,17.186,18.696h17.033
			c1.801,0,3.268,1.595,3.268,3.555v3.287c-23.144,0.006-21.142,0.184-24.019-0.316c-26.655-4.592-25.986-45.967,0-50.442
			c2.62-0.457,4.865-0.304,13.999-0.316c0.933,0,0.664-0.002,0.746-0.002v-0.001c0.006-0.001,0.011-0.001,0.016-0.001v0.002
			c7.341,0,13.313,6.497,13.313,14.481c0,7.984-5.972,14.481-13.313,14.481v0.002C393.371,93.998,393.366,93.997,393.36,93.997z"/>
		<path fill="#77C8A8" stroke="#ACDBC7" stroke-width="2" d="M195.254,90.721c-0.001,0.029-0.001,0.128-0.001,0.235l-0.001,0.233
			c-0.004,2.112-0.004,15.112-0.004,21.362v1.619h-3.022c-1.802,0-3.269-1.598-3.269-3.557V90.875
			c0-10.308-7.709-18.694-17.186-18.694c-4.584,0-8.899,1.948-12.151,5.484c-2.554,2.78-4.2,6.27-4.789,10.054
			c0,7.501,0,14.562,0,20.077c0,0.348,0,0.682,0.001,1.007h-0.249v1.812c0,1.961-1.466,3.557-3.27,3.557h-3.021V91.212
			c-0.003-0.415,0.001-0.828,0.015-1.24c-0.014-16.396-0.009-38.765-0.009-52.198h3.263c1.802,0,3.267,1.597,3.267,3.556
			c0,5.775,0,18.413,0,31.853c0.078-0.087,0.151-0.18,0.231-0.267c4.442-4.89,10.376-7.585,16.709-7.585
			C184.642,65.331,195.176,76.721,195.254,90.721z"/>
		<path fill="#77C8A8" stroke="#ACDBC7" stroke-width="2" d="M246.351,90.379c0,14-10.471,25.459-23.343,25.544
			c-0.131-0.002-1.639-0.004-1.77-0.004v0.002h-2.19c-13.186,0.164-23.794-11.323-23.794-25.535
			c0-13.767,10.227-25.596,23.774-25.543c0.254,0.001,0.716,0.001,1.338,0.002v-0.002h2.19
			C235.744,64.681,246.351,76.168,246.351,90.379z M240.054,90.38c0-10.308-7.692-18.695-17.187-18.695h-1.628v0.006h-2.499
			c-9.478,0-17.188,8.386-17.188,18.694c0,10.419,7.806,18.695,17.173,18.695c0.592,0,1.001,0,1.644,0v-0.007h2.498
			C232.343,109.073,240.054,100.688,240.054,90.38z"/>
		<path fill="#77C8A8" stroke="#ACDBC7" stroke-width="2" d="M331.962,112.632v3.287c-3.828,0-6.615,0.002-8.643,0.003
			c-2.379,0.001-3.767,0.003-4.517-0.001l-0.786-0.051c-12.374-0.791-22.068-11.986-22.072-25.486V39.517h3.262
			c1.802,0,3.268,1.594,3.268,3.553v21.755c3.189,0.004,9.353,0.002,17.107,0.01c1.802,0,3.266,1.594,3.266,3.556v3.286
			c-3.459,0-16.281,0.002-18.553,0.003c-0.654,0-1.27-0.168-1.82-0.46v19.154c0,10.482,7.447,18.695,16.953,18.695l9.268,0.007
			C330.495,109.077,331.962,110.673,331.962,112.632z"/>
		<path fill="#77C8A8" stroke="#ACDBC7" stroke-width="2" d="M450.729,65.075h6.143l-21.451,25.521l21.451,25.55h-5.63
			c-1.341,0-2.615-0.635-3.583-1.787l-16.107-19.162l-16.108,19.163c-0.967,1.151-2.238,1.786-3.583,1.786h-6.109l3.584-4.268
			c5.148-6.132,5.148-6.132,10.381-12.361l27.427-32.653C448.112,65.709,449.386,65.075,450.729,65.075z M415.479,66.864
			l11.429,13.659l-1.896,2.258c-0.531,0.632-1.23,0.98-1.971,0.98s-1.441-0.347-1.97-0.978l-14.848-17.709h5.671
			C413.236,65.075,414.511,65.709,415.479,66.864z"/>
		<path fill="#77C8A8" stroke="#ACDBC7" stroke-width="2" d="M295.944,90.379c0,14-10.471,25.459-23.343,25.544
			c-0.132-0.002-1.64-0.004-1.77-0.004v0.002h-2.19c-13.185,0.164-23.793-11.323-23.793-25.535
			c0-13.767,10.227-25.596,23.774-25.543c0.254,0.001,0.716,0.001,1.337,0.003v-0.003h2.19
			C285.338,64.681,295.944,76.169,295.944,90.379z M289.647,90.38c0-10.308-7.691-18.695-17.186-18.695h-1.629v0.006h-2.499
			c-9.478,0-17.188,8.386-17.188,18.694c0,10.419,7.806,18.695,17.173,18.695c0.591,0,1,0,1.643,0v-0.007h2.498
			C281.938,109.073,289.647,100.688,289.647,90.38z"/>
	</g>
	<path id="XMLID_2_" fill="#77C8A7" stroke="#ACDBC7" stroke-width="3" d="M141.119,61.314c-2.652,1.483-5.485,3.068-8.323,4.655
		c0.536,4.217,1.303,7.763,1.376,11.33c0.156,7.626-3.519,13.465-9.319,15.522c-6.194,2.194-13.426-0.851-16.427-6.797
		c-1.839-3.642-1.622-7.381,0.731-10.017c2.9-3.25,6.173-6.353,9.72-8.255c6.104-3.275,12.673-5.19,18.809-8.386
		c6.395-3.332,10.392-9.238,9.788-18.576c-0.035-0.581-0.481-1.122-0.95-2.151c-13.552,13.022-29.848,13.624-45.657,13.605
		c-0.028,0-0.057,0-0.083,0c-0.027,0-0.057,0-0.083,0c-15.81,0.019-32.105-0.583-45.657-13.605c-0.47,1.029-0.915,1.57-0.951,2.151
		c-0.604,9.337,3.393,15.244,9.79,18.576c6.135,3.196,12.705,5.111,18.807,8.386c3.547,1.903,6.819,5.005,9.72,8.255
		c2.353,2.636,2.568,6.375,0.731,10.017c-3.001,5.947-10.232,8.991-16.427,6.797c-5.8-2.057-9.475-7.896-9.319-15.522
		c0.074-3.567,0.84-7.113,1.377-11.33c-2.839-1.587-5.674-3.172-8.326-4.655c-3.551,3.254-4.191,7.434-4.699,11.775
		c-2.246,19.191,16.349,34.969,27.231,32.042c5.28-1.419,8.623,0.795,12.245,4.349c1.639,1.607,3.458,5.504,5.549,7.253
		c0.004-0.003,0.007-0.006,0.012-0.009c0.002,0.003,0.005,0.006,0.01,0.009c2.092-1.749,3.912-5.646,5.55-7.253
		c3.622-3.554,6.966-5.768,12.246-4.349c10.883,2.927,29.476-12.851,27.231-32.042C145.311,68.748,144.673,64.568,141.119,61.314z"
		/>
</g>
</svg>
