<?xml version="1.0" encoding="utf-8"?>
<!-- Generator: Adobe Illustrator 16.0.0, SVG Export Plug-In . SVG Version: 6.00 Build 0)  -->
<!DOCTYPE svg PUBLIC "-//W3C//DTD SVG 1.1//EN" "http://www.w3.org/Graphics/SVG/1.1/DTD/svg11.dtd">
<svg version="1.1" id="Layer_1" xmlns="http://www.w3.org/2000/svg" xmlns:xlink="http://www.w3.org/1999/xlink" x="0px" y="0px"
	 width="1500px" height="1500px" viewBox="0 0 1500 1500" enable-background="new 0 0 1500 1500" xml:space="preserve">
<g>
	<path id="XMLID_2_" fill="#77C8A7" stroke="#ACDBC7" stroke-width="3" d="M1061.985,534.196
		c-22.093,12.296-45.687,25.438-69.328,38.593c4.466,34.963,10.849,64.362,11.462,93.938
		c1.303,63.229-29.306,111.633-77.618,128.684c-51.587,18.189-111.823-7.053-136.814-56.354
		c-15.322-30.19-13.51-61.194,6.081-83.048c24.161-26.944,51.417-52.669,80.958-68.445c50.844-27.149,105.556-43.03,156.662-69.52
		c53.268-27.625,86.559-76.592,81.525-154.002c-0.292-4.821-4.013-9.303-7.911-17.832
		c-112.881,107.958-248.61,112.946-380.289,112.793c-0.235,0-0.472,0-0.688,0c-0.227,0-0.472,0-0.689,0
		c-131.679,0.153-267.417-4.835-380.289-112.793c-3.908,8.529-7.619,13.011-7.921,17.832
		c-5.032,77.41,28.258,126.377,81.535,154.002c51.107,26.49,105.819,42.371,156.651,69.52c29.542,15.776,56.799,41.501,80.96,68.445
		c19.6,21.854,21.394,52.857,6.089,83.048c-25,49.301-85.226,74.543-136.823,56.354c-48.312-17.051-78.92-65.456-77.617-128.684
		c0.614-29.577,6.996-58.975,11.471-93.938c-23.642-13.155-47.254-26.297-69.347-38.593c-29.58,26.976-34.905,61.632-39.144,97.619
		c-18.703,159.108,136.173,289.907,226.818,265.651c43.978-11.77,71.82,6.594,101.995,36.047
		c13.644,13.328,28.797,45.637,46.217,60.141c0.036-0.025,0.055-0.051,0.094-0.076c0.019,0.025,0.047,0.051,0.085,0.076
		c17.419-14.504,32.581-46.813,46.226-60.141c30.164-29.453,58.016-47.816,101.994-36.047
		c90.646,24.256,245.513-106.543,226.81-265.651C1096.899,595.828,1091.584,561.171,1061.985,534.196z"/>
</g>
</svg>
